# xmcd
#
# Track frame offsets:
#	150
#	13212
#	30987
#	46225
#	63237
#	78750
#	91187
#	108237
#	125760
#	140622
#
# Disc length: 2054 seconds
#
# Revision: 2
# Processed by: cddbd v1.5.2PL0 Copyright (c) Steve Scherf et al.
# Submitted via: audiograbber 1.83.01
#
DISCID=7708040a
DTITLE=Marshall Chapman - Dirty Linen
DYEAR=1987
DGENRE=Folk-Rock
TTITLE0=Great Big Crush
TTITLE1=Daddy Long Legs
TTITLE2=Bad Debt
TTITLE3=Roller Coaster Man
TTITLE4=Betty's Being Bad
TTITLE5=Hollywood Here I Come
TTITLE6=Rockabilly Sweethearts
TTITLE7=Love Talk
TTITLE8=Go On 'bout Your Bidness
TTITLE9=For The Love Of A Man
EXTD=
EXTT0=
EXTT1=
EXTT2=
EXTT3=Corrected.
EXTT4=
EXTT5=
EXTT6=
EXTT7=
EXTT8=
EXTT9=
PLAYORDER=
